<svg id="logosandtypes_com" xmlns="http://www.w3.org/2000/svg" viewBox="0 0 150 150.2"><style>.st2{fill:#d5503f}</style><path d="M0 .2h150v150H0V.2z" fill="none" id="Layer_2"/><g id="hub_group"><path d="M74.8 5.1L15 39.8v69l60 34.5 59.8-34.5v-69l-60-34.7zm51.8 99l-51.8 29.7-51.5-29.4v-60l51.5-29.6 51.8 29.6v59.7z" fill="#c3c5c6"/><path class="st2" d="M56.3 109.1h10.8V85.9h15.3v23.2h10.8V76.3H56.3zM42.5 72.7h11V39.8h-11zM96 72.7h11.1V39.8H96zM42.5 109.1h11V76.3h-11zM67.4 39.8H56.3v32.9h36.9V39.8H82.4V63h-15zM96 109.1h11.1V76.3H96z"/><path class="st2" d="M56.3 109.1h10.8V85.9h15.3v23.2h10.8V76.3H56.3zM42.5 109.1h11V76.3h-11zM82.4 39.8V63h-15V39.8H56.3v32.9h36.9V39.8zM42.5 72.7h11V39.8h-11zM96 72.7h11.1V39.8H96zM96 109.1h11.1V76.3H96z"/></g></svg>